<?xml version="1.0" standalone="yes"?>
<svg xmlns="http://www.w3.org/2000/svg" width="600" height="600">
<path style="fill:#f9f9f9; stroke:none;" d="M0 0L0 600L600 600L600 0L0 0z"/>
<path style="fill:#c1b3b9; stroke:none;" d="M344 52L344 54L363 55L344 52M334 53L334 55L343 54L334 53M319 62L332 55C326.576 53.862 322.001 57.8661 319 62M364 54L364 55L369 56L364 54M370 56L370 57L373 57L370 56M375 59L383 91L384 91C384 79.6866 384.915 66.6576 375 59M317 63C279.938 133.439 239.248 202.025 201.309 272C191.711 289.703 161.156 330.009 185 348C169.136 316.821 194.579 288.905 209.487 262C233.254 219.105 256.475 175.856 280.347 133C293.189 109.947 308.116 87.0405 319 63L317 63M339 77L340 78L339 77z"/>
<path style="fill:#fe86b9; stroke:none;" d="M340 77L341 78L340 77z"/>
<path style="fill:#fb6bac; stroke:none;" d="M341 77L341 78L344 78L341 77z"/>
<path style="fill:#fe86b9; stroke:none;" d="M344 77L347 80L344 77z"/>
<path style="fill:#c1b3b9; stroke:none;" d="M354 77L354 78L358 78L354 77z"/>
<path style="fill:#fb6bac; stroke:none;" d="M339 78L340 79L339 78z"/>
<path style="fill:#f9076d; stroke:none;" d="M217 328C215.725 321.148 220.334 315.737 223.576 310C229.962 298.696 236.125 287.27 242.573 276C268.681 230.362 295.327 184.547 319.745 138C327.192 123.802 338.807 109.524 343.112 94C344.028 90.695 348.413 80.6098 343.581 78.662C338.454 76.5956 334.788 86.8697 332.999 90C324.657 104.598 316.4 119.261 308.306 134C281.47 182.864 254.262 231.61 226.579 280C220.132 291.269 213.958 302.695 207.576 314C205.835 317.082 201.501 322.821 204.043 326.471C206.322 329.743 213.579 328.009 217 328z"/>
<path style="fill:#fe86b9; stroke:none;" d="M346 92L345 90L344 90C344.127 97.1556 339.444 103.969 335.999 110C329.73 120.975 323.418 131.974 317.312 143C293.122 186.687 267.896 229.944 244.336 274C238.619 284.689 232.668 295.535 226.551 306C222.307 313.26 216.769 320.196 218 329L267 328L286 330L287 330L287 326L302 327C297.369 338.119 294.302 350.019 289.611 361.09C286.686 367.993 281.854 376.37 283 384C277.909 384.692 272.689 405.9 270.847 411C263.856 430.362 256.858 449.733 249.588 469C245.698 479.31 239.136 490.877 239 502C233.692 502.774 227.254 521.836 235.06 522.699C240.15 523.262 242.799 515.425 244.889 512C252.369 499.745 259.802 487.438 267 475C297.134 422.929 328.649 371.594 359.602 320L388.199 272C390.717 267.792 398.146 259.388 394.931 254.218C392.115 249.69 378.694 252 374 252C353.978 252 331.684 254.712 312 251C327.745 209.88 336.065 165.187 348.72 123C351.903 112.388 355.059 101.713 357.884 91C358.696 87.9235 361.242 82.5455 358.969 79.6042C353.81 72.9283 347.149 88.8444 346 92M338 79L339 80L338 79z"/>
<path style="fill:#fb6bac; stroke:none;" d="M345 79L346 80L345 79z"/>
<path style="fill:#c1b3b9; stroke:none;" d="M352 79L353 80L352 79M337 80L338 81L337 80z"/>
<path style="fill:#fb6bac; stroke:none;" d="M338 80L339 81L338 80M346 80L346 83L347 83L346 80z"/>
<path style="fill:#fe86b9; stroke:none;" d="M337 81L338 82L337 81z"/>
<path style="fill:#c1b3b9; stroke:none;" d="M351 81L352 82L351 81M336 82L337 83L336 82M350 82L351 83L350 82z"/>
<path style="fill:#fb6bac; stroke:none;" d="M336 83L337 84L336 83z"/>
<path style="fill:#fe86b9; stroke:none;" d="M346 83L347 84L346 83M335 84L336 85L335 84z"/>
<path style="fill:#c1b3b9; stroke:none;" d="M346 84L347 85L346 84M349 84L350 85L349 84z"/>
<path style="fill:#fb6bac; stroke:none;" d="M335 85L336 86L335 85M345.333 85.6667L345.667 86.3333L345.333 85.6667z"/>
<path style="fill:#c1b3b9; stroke:none;" d="M359 85L360 86L359 85z"/>
<path style="fill:#fe86b9; stroke:none;" d="M334 86L335 87L334 86z"/>
<path style="fill:#c1b3b9; stroke:none;" d="M348 86L349 87L348 86z"/>
<path style="fill:#fb6bac; stroke:none;" d="M334 87L335 88L334 87z"/>
<path style="fill:#fe86b9; stroke:none;" d="M345 87L346 88L345 87M333 88L334 89L333 88z"/>
<path style="fill:#fb6bac; stroke:none;" d="M344.333 88.6667L344.667 89.3333L344.333 88.6667z"/>
<path style="fill:#c1b3b9; stroke:none;" d="M345 88L347 90L345 88M347 88L348 89L347 88M358.333 88.6667L358.667 89.3333L358.333 88.6667M332 89L333 90L332 89z"/>
<path style="fill:#fb6bac; stroke:none;" d="M333 89L334 90L333 89z"/>
<path style="fill:#f9f9f9; stroke:none;" d="M345.333 89.6667L345.667 90.3333L345.333 89.6667z"/>
<path style="fill:#fb6bac; stroke:none;" d="M332 90L333 91L332 90z"/>
<path style="fill:#c1b3b9; stroke:none;" d="M331 91L332 92L331 91M345 91L346 92L345 91z"/>
<path style="fill:#fb6bac; stroke:none;" d="M331 92L332 93L331 92M343 92L343 95L344 95L343 92z"/>
<path style="fill:#c1b3b9; stroke:none;" d="M344 92L345 93L344 92M357 92L358 93L357 92M382 92L371.305 133L365 158L366 158L379.45 109L382 92z"/>
<path style="fill:#fe86b9; stroke:none;" d="M330 93L331 94L330 93z"/>
<path style="fill:#fb6bac; stroke:none;" d="M330 94L331 95L330 94z"/>
<path style="fill:#fe86b9; stroke:none;" d="M329 95L330 96L329 95z"/>
<path style="fill:#c1b3b9; stroke:none;" d="M328 96L329 97L328 96z"/>
<path style="fill:#fb6bac; stroke:none;" d="M329 96L330 97L329 96M342 96L342 99L343 99L342 96z"/>
<path style="fill:#c1b3b9; stroke:none;" d="M356 96L357 97L356 96z"/>
<path style="fill:#fe86b9; stroke:none;" d="M328 97L329 98L328 97z"/>
<path style="fill:#c1b3b9; stroke:none;" d="M327 98L328 99L327 98z"/>
<path style="fill:#fb6bac; stroke:none;" d="M327 99L328 100L327 99M341 99L342 100L341 99z"/>
<path style="fill:#c1b3b9; stroke:none;" d="M355.333 99.6667L355.667 100.333L355.333 99.6667z"/>
<path style="fill:#fe86b9; stroke:none;" d="M326 100L327 101L326 100z"/>
<path style="fill:#fb6bac; stroke:none;" d="M340.333 100.667L340.667 101.333L340.333 100.667M326 101L327 102L326 101z"/>
<path style="fill:#fe86b9; stroke:none;" d="M325 102L326 103L325 102z"/>
<path style="fill:#fb6bac; stroke:none;" d="M339.333 102.667L339.667 103.333L339.333 102.667z"/>
<path style="fill:#c1b3b9; stroke:none;" d="M354.333 102.667L354.667 103.333L354.333 102.667z"/>
<path style="fill:#fb6bac; stroke:none;" d="M325 103L326 104L325 103z"/>
<path style="fill:#fe86b9; stroke:none;" d="M324 104L325 105L324 104z"/>
<path style="fill:#fb6bac; stroke:none;" d="M338.333 104.667L338.667 105.333L338.333 104.667M324 105L325 106L324 105z"/>
<path style="fill:#fe86b9; stroke:none;" d="M323 106L324 107L323 106z"/>
<path style="fill:#fb6bac; stroke:none;" d="M337.333 106.667L337.667 107.333L337.333 106.667z"/>
<path style="fill:#c1b3b9; stroke:none;" d="M353 106L354 107L353 106M322 107L323 108L322 107z"/>
<path style="fill:#fb6bac; stroke:none;" d="M323 107L324 108L323 107M322 108L323 109L322 108M336.333 108.667L336.667 109.333L336.333 108.667z"/>
<path style="fill:#fe86b9; stroke:none;" d="M321 109L322 110L321 109z"/>
<path style="fill:#c1b3b9; stroke:none;" d="M352.333 109.667L352.667 110.333L352.333 109.667z"/>
<path style="fill:#fb6bac; stroke:none;" d="M321 110L322 111L321 110M335 110L336 111L335 110z"/>
<path style="fill:#fe86b9; stroke:none;" d="M320 111L321 112L320 111z"/>
<path style="fill:#fb6bac; stroke:none;" d="M334.333 111.667L334.667 112.333L334.333 111.667z"/>
<path style="fill:#fe86b9; stroke:none;" d="M319 113L320 114L319 113z"/>
<path style="fill:#fb6bac; stroke:none;" d="M333.333 113.667L333.667 114.333L333.333 113.667z"/>
<path style="fill:#c1b3b9; stroke:none;" d="M351 113L352 114L351 113M318 114L319 115L318 114z"/>
<path style="fill:#fb6bac; stroke:none;" d="M319 114L320 115L319 114M318 115L319 116L318 115M332 115L331 118L332 115z"/>
<path style="fill:#fe86b9; stroke:none;" d="M317 116L318 117L317 116z"/>
<path style="fill:#fb6bac; stroke:none;" d="M317 117L318 118L317 117z"/>
<path style="fill:#c1b3b9; stroke:none;" d="M350 117L351 118L350 117z"/>
<path style="fill:#fe86b9; stroke:none;" d="M316 118L317 119L316 118z"/>
<path style="fill:#fb6bac; stroke:none;" d="M330.333 118.667L330.667 119.333L330.333 118.667M316 119L317 120L316 119z"/>
<path style="fill:#fe86b9; stroke:none;" d="M315 120L316 121L315 120z"/>
<path style="fill:#fb6bac; stroke:none;" d="M329 120L328 124L329 124L329 120z"/>
<path style="fill:#c1b3b9; stroke:none;" d="M349.333 120.667L349.667 121.333L349.333 120.667M314 121L315 122L314 121z"/>
<path style="fill:#fb6bac; stroke:none;" d="M315 121L316 122L315 121z"/>
<path style="fill:#fe86b9; stroke:none;" d="M314 122L315 123L314 122z"/>
<path style="fill:#c1b3b9; stroke:none;" d="M313 123L314 124L313 123M348.333 123.667L348.667 124.333L348.333 123.667z"/>
<path style="fill:#fb6bac; stroke:none;" d="M313 124L314 125L313 124M327 124L326 127L327 124z"/>
<path style="fill:#fe86b9; stroke:none;" d="M312 125L313 126L312 125z"/>
<path style="fill:#fb6bac; stroke:none;" d="M312 126L313 127L312 126z"/>
<path style="fill:#fe86b9; stroke:none;" d="M311 127L312 128L311 127z"/>
<path style="fill:#fb6bac; stroke:none;" d="M325 127L320 138C323.172 135.232 326.286 131.353 325 127z"/>
<path style="fill:#c1b3b9; stroke:none;" d="M347 127L348 128L347 127z"/>
<path style="fill:#fb6bac; stroke:none;" d="M311 128L312 129L311 128z"/>
<path style="fill:#fe86b9; stroke:none;" d="M310 129L311 130L310 129z"/>
<path style="fill:#c1b3b9; stroke:none;" d="M309 130L310 131L309 130z"/>
<path style="fill:#fb6bac; stroke:none;" d="M310 130L311 131L310 130z"/>
<path style="fill:#c1b3b9; stroke:none;" d="M346.333 130.667L346.667 131.333L346.333 130.667z"/>
<path style="fill:#fe86b9; stroke:none;" d="M309 131L310 132L309 131z"/>
<path style="fill:#c1b3b9; stroke:none;" d="M308 132L309 133L308 132z"/>
<path style="fill:#fb6bac; stroke:none;" d="M308 133L309 134L308 133z"/>
<path style="fill:#fe86b9; stroke:none;" d="M307 134L308 135L307 134z"/>
<path style="fill:#c1b3b9; stroke:none;" d="M345.333 134.667L345.667 135.333L345.333 134.667z"/>
<path style="fill:#fb6bac; stroke:none;" d="M307 135L308 136L307 135z"/>
<path style="fill:#fe86b9; stroke:none;" d="M306 136L307 137L306 136z"/>
<path style="fill:#fb6bac; stroke:none;" d="M306 137L307 138L306 137z"/>
<path style="fill:#c1b3b9; stroke:none;" d="M344.333 137.667L344.667 138.333L344.333 137.667z"/>
<path style="fill:#fe86b9; stroke:none;" d="M305 138L306 139L305 138z"/>
<path style="fill:#fb6bac; stroke:none;" d="M319.333 138.667L319.667 139.333L319.333 138.667z"/>
<path style="fill:#c1b3b9; stroke:none;" d="M304 139L305 140L304 139z"/>
<path style="fill:#fb6bac; stroke:none;" d="M305 139L306 140L305 139M304 140L305 141L304 140M318 140L319 141L318 140z"/>
<path style="fill:#c1b3b9; stroke:none;" d="M303 141L304 142L303 141M343.333 141.667L343.667 142.333L343.333 141.667z"/>
<path style="fill:#fb6bac; stroke:none;" d="M303 142L304 143L303 142M317 142L318 143L317 142z"/>
<path style="fill:#c1b3b9; stroke:none;" d="M302 143L303 144L302 143z"/>
<path style="fill:#fb6bac; stroke:none;" d="M316.333 143.667L316.667 144.333L316.333 143.667M302 144L303 145L302 144z"/>
<path style="fill:#c1b3b9; stroke:none;" d="M342.333 144.667L342.667 145.333L342.333 144.667z"/>
<path style="fill:#fe86b9; stroke:none;" d="M301 145L302 146L301 145z"/>
<path style="fill:#fb6bac; stroke:none;" d="M315.333 145.667L315.667 146.333L315.333 145.667z"/>
<path style="fill:#c1b3b9; stroke:none;" d="M300 146L301 147L300 146z"/>
<path style="fill:#fb6bac; stroke:none;" d="M301 146L302 147L301 146M300 147L301 148L300 147M314 147L312 152L313 152L314 147z"/>
<path style="fill:#c1b3b9; stroke:none;" d="M299 148L300 149L299 148M341.333 148.667L341.667 149.333L341.333 148.667z"/>
<path style="fill:#fb6bac; stroke:none;" d="M299 149L300 150L299 149z"/>
<path style="fill:#fe86b9; stroke:none;" d="M298 150L299 151L298 150z"/>
<path style="fill:#fb6bac; stroke:none;" d="M298 151L299 152L298 151z"/>
<path style="fill:#c1b3b9; stroke:none;" d="M340.333 151.667L340.667 152.333L340.333 151.667z"/>
<path style="fill:#fe86b9; stroke:none;" d="M297 152L298 153L297 152z"/>
<path style="fill:#fb6bac; stroke:none;" d="M311.333 152.667L311.667 153.333L311.333 152.667M297 153L298 154L297 153z"/>
<path style="fill:#fe86b9; stroke:none;" d="M296 154L297 155L296 154z"/>
<path style="fill:#fb6bac; stroke:none;" d="M310 154L309 158L310 158L310 154z"/>
<path style="fill:#c1b3b9; stroke:none;" d="M339 154L339 157L340 157L339 154z"/>
<path style="fill:#fb6bac; stroke:none;" d="M296 155L297 156L296 155z"/>
<path style="fill:#fe86b9; stroke:none;" d="M295 156L296 157L295 156z"/>
<path style="fill:#c1b3b9; stroke:none;" d="M294 157L295 158L294 157z"/>
<path style="fill:#fb6bac; stroke:none;" d="M294 158L295 159L294 158M308 158L305 165L306 165L308 158z"/>
<path style="fill:#c1b3b9; stroke:none;" d="M338.333 158.667L338.667 159.333L338.333 158.667z"/>
<path style="fill:#fe86b9; stroke:none;" d="M293 159L294 160L293 159z"/>
<path style="fill:#c1b3b9; stroke:none;" d="M363 159L354 192C360.886 186.782 363.279 167.337 365 159L363 159z"/>
<path style="fill:#fb6bac; stroke:none;" d="M293 160L294 161L293 160z"/>
<path style="fill:#fe86b9; stroke:none;" d="M292 161L293 162L292 161z"/>
<path style="fill:#fb6bac; stroke:none;" d="M292 162L293 163L292 162z"/>
<path style="fill:#c1b3b9; stroke:none;" d="M337.333 162.667L337.667 163.333L337.333 162.667z"/>
<path style="fill:#fe86b9; stroke:none;" d="M291 163L292 164L291 163z"/>
<path style="fill:#c1b3b9; stroke:none;" d="M290 164L291 165L290 164z"/>
<path style="fill:#fb6bac; stroke:none;" d="M291 164L292 165L291 164M290 165L291 166L290 165M304 165L303 168L304 165z"/>
<path style="fill:#c1b3b9; stroke:none;" d="M336.333 165.667L336.667 166.333L336.333 165.667z"/>
<path style="fill:#fe86b9; stroke:none;" d="M289 166L290 167L289 166z"/>
<path style="fill:#fb6bac; stroke:none;" d="M289 167L290 168L289 167z"/>
<path style="fill:#fe86b9; stroke:none;" d="M288 168L289 169L288 168z"/>
<path style="fill:#fb6bac; stroke:none;" d="M302.333 168.667L302.667 169.333L302.333 168.667M288 169L289 170L288 169z"/>
<path style="fill:#c1b3b9; stroke:none;" d="M335.333 169.667L335.667 170.333L335.333 169.667z"/>
<path style="fill:#fe86b9; stroke:none;" d="M287 170L288 171L287 170z"/>
<path style="fill:#fb6bac; stroke:none;" d="M301.333 170.667L301.667 171.333L301.333 170.667z"/>
<path style="fill:#c1b3b9; stroke:none;" d="M286 171L287 172L286 171z"/>
<path style="fill:#fb6bac; stroke:none;" d="M287 171L288 172L287 171z"/>
<path style="fill:#fe86b9; stroke:none;" d="M286 172L287 173L286 172z"/>
<path style="fill:#fb6bac; stroke:none;" d="M300 172L301 173L300 172z"/>
<path style="fill:#c1b3b9; stroke:none;" d="M334.333 172.667L334.667 173.333L334.333 172.667M285 173L286 174L285 173z"/>
<path style="fill:#fb6bac; stroke:none;" d="M285 174L286 175L285 174M299 174L300 175L299 174z"/>
<path style="fill:#fe86b9; stroke:none;" d="M284 175L285 176L284 175z"/>
<path style="fill:#fb6bac; stroke:none;" d="M284 176L285 177L284 176M298 176L297 179L298 176z"/>
<path style="fill:#fe86b9; stroke:none;" d="M283 177L284 178L283 177z"/>
<path style="fill:#c1b3b9; stroke:none;" d="M333 177L334 178L333 177z"/>
<path style="fill:#fb6bac; stroke:none;" d="M283 178L284 179L283 178z"/>
<path style="fill:#fe86b9; stroke:none;" d="M282 179L283 180L282 179z"/>
<path style="fill:#fb6bac; stroke:none;" d="M296.333 179.667L296.667 180.333L296.333 179.667z"/>
<path style="fill:#c1b3b9; stroke:none;" d="M332 180L333 181L332 180z"/>
<path style="fill:#fe86b9; stroke:none;" d="M281 181L282 182L281 181z"/>
<path style="fill:#fb6bac; stroke:none;" d="M295 181L294 184L295 181z"/>
<path style="fill:#fe86b9; stroke:none;" d="M280 182L281 183L280 182z"/>
<path style="fill:#fb6bac; stroke:none;" d="M280 183L281 184L280 183z"/>
<path style="fill:#fe86b9; stroke:none;" d="M279 184L280 185L279 184z"/>
<path style="fill:#fb6bac; stroke:none;" d="M293.333 184.667L293.667 185.333L293.333 184.667M279 185L280 186L279 185z"/>
<path style="fill:#fe86b9; stroke:none;" d="M278 186L279 187L278 186z"/>
<path style="fill:#fb6bac; stroke:none;" d="M292.333 186.667L292.667 187.333L292.333 186.667M278 187L279 188L278 187z"/>
<path style="fill:#c1b3b9; stroke:none;" d="M330 187L331 188L330 187z"/>
<path style="fill:#fe86b9; stroke:none;" d="M277 188L278 189L277 188z"/>
<path style="fill:#fb6bac; stroke:none;" d="M291.333 188.667L291.667 189.333L291.333 188.667z"/>
<path style="fill:#c1b3b9; stroke:none;" d="M276 189L277 190L276 189z"/>
<path style="fill:#fb6bac; stroke:none;" d="M277 189L278 190L277 189M276 190L277 191L276 190M290 190L288 195L289 195L290 190z"/>
<path style="fill:#c1b3b9; stroke:none;" d="M329.333 190.667L329.667 191.333L329.333 190.667M275 191L276 192L275 191z"/>
<path style="fill:#fb6bac; stroke:none;" d="M275 192L274 195L275 192z"/>
<path style="fill:#fe86b9; stroke:none;" d="M274 193L275 194L274 193z"/>
<path style="fill:#c1b3b9; stroke:none;" d="M328.333 193.667L328.667 194.333L328.333 193.667M354 193L344 228L356 228L356 227L347 225C349.53 217.541 356.549 200.349 354 193z"/>
<path style="fill:#fe86b9; stroke:none;" d="M273 195L274 196L273 195z"/>
<path style="fill:#fb6bac; stroke:none;" d="M287.333 195.667L287.667 196.333L287.333 195.667z"/>
<path style="fill:#c1b3b9; stroke:none;" d="M272 196L273 197L272 196z"/>
<path style="fill:#fb6bac; stroke:none;" d="M273 196L274 197L273 196z"/>
<path style="fill:#fe86b9; stroke:none;" d="M272 197L273 198L272 197z"/>
<path style="fill:#fb6bac; stroke:none;" d="M286 197L285 200L286 197z"/>
<path style="fill:#c1b3b9; stroke:none;" d="M327.333 197.667L327.667 198.333L327.333 197.667M271 198L272 199L271 198z"/>
<path style="fill:#fb6bac; stroke:none;" d="M271 199L272 200L271 199z"/>
<path style="fill:#fe86b9; stroke:none;" d="M270 200L271 201L270 200z"/>
<path style="fill:#fb6bac; stroke:none;" d="M284.333 200.667L284.667 201.333L284.333 200.667z"/>
<path style="fill:#c1b3b9; stroke:none;" d="M326.333 200.667L326.667 201.333L326.333 200.667z"/>
<path style="fill:#fb6bac; stroke:none;" d="M270 201L271 202L270 201z"/>
<path style="fill:#fe86b9; stroke:none;" d="M269 202L270 203L269 202z"/>
<path style="fill:#fb6bac; stroke:none;" d="M283 202L282 206L283 206L283 202M269 203L270 204L269 203z"/>
<path style="fill:#fe86b9; stroke:none;" d="M268 204L269 205L268 204z"/>
<path style="fill:#c1b3b9; stroke:none;" d="M325.333 204.667L325.667 205.333L325.333 204.667M267 205L268 206L267 205z"/>
<path style="fill:#fb6bac; stroke:none;" d="M268 205L269 206L268 205z"/>
<path style="fill:#fe86b9; stroke:none;" d="M267 206L268 207L267 206z"/>
<path style="fill:#fb6bac; stroke:none;" d="M281.333 206.667L281.667 207.333L281.333 206.667z"/>
<path style="fill:#c1b3b9; stroke:none;" d="M266 207L267 208L266 207z"/>
<path style="fill:#fb6bac; stroke:none;" d="M266 208L267 209L266 208M280.333 208.667L280.667 209.333L280.333 208.667z"/>
<path style="fill:#c1b3b9; stroke:none;" d="M324.333 208.667L324.667 209.333L324.333 208.667z"/>
<path style="fill:#fe86b9; stroke:none;" d="M265 209L266 210L265 209z"/>
<path style="fill:#fb6bac; stroke:none;" d="M265 210L266 211L265 210M279 210L280 211L279 210z"/>
<path style="fill:#fe86b9; stroke:none;" d="M264 211L265 212L264 211z"/>
<path style="fill:#fb6bac; stroke:none;" d="M278.333 211.667L278.667 212.333L278.333 211.667M264 212L265 213L264 212z"/>
<path style="fill:#c1b3b9; stroke:none;" d="M323 212L324 213L323 212z"/>
<path style="fill:#fe86b9; stroke:none;" d="M263 213L262 216L263 216L263 213z"/>
<path style="fill:#fb6bac; stroke:none;" d="M277.333 213.667L277.667 214.333L277.333 213.667M263 214L264 215L263 214M276 215L275 218L276 215z"/>
<path style="fill:#c1b3b9; stroke:none;" d="M322 215L323 216L322 215M261 216L262 217L261 216z"/>
<path style="fill:#fb6bac; stroke:none;" d="M261 217L262 218L261 217z"/>
<path style="fill:#fe86b9; stroke:none;" d="M260 218L261 219L260 218z"/>
<path style="fill:#fb6bac; stroke:none;" d="M274 218L273 222L274 222L274 218z"/>
<path style="fill:#c1b3b9; stroke:none;" d="M321.333 218.667L321.667 219.333L321.333 218.667z"/>
<path style="fill:#fb6bac; stroke:none;" d="M260 219L261 220L260 219z"/>
<path style="fill:#fe86b9; stroke:none;" d="M259 220L260 221L259 220z"/>
<path style="fill:#fb6bac; stroke:none;" d="M259 221L260 222L259 221z"/>
<path style="fill:#fe86b9; stroke:none;" d="M258 222L259 223L258 222z"/>
<path style="fill:#fb6bac; stroke:none;" d="M272.333 222.667L272.667 223.333L272.333 222.667z"/>
<path style="fill:#c1b3b9; stroke:none;" d="M320.333 222.667L320.667 223.333L320.333 222.667M257 223L258 224L257 223z"/>
<path style="fill:#fb6bac; stroke:none;" d="M257 224L258 225L257 224M271 224L270 227L271 224z"/>
<path style="fill:#fe86b9; stroke:none;" d="M256 225L257 226L256 225z"/>
<path style="fill:#fb6bac; stroke:none;" d="M256 226L257 227L256 226z"/>
<path style="fill:#c1b3b9; stroke:none;" d="M319 226L320 227L319 226z"/>
<path style="fill:#fe86b9; stroke:none;" d="M255 227L256 228L255 227z"/>
<path style="fill:#fb6bac; stroke:none;" d="M269.333 227.667L269.667 228.333L269.333 227.667z"/>
<path style="fill:#c1b3b9; stroke:none;" d="M358 227L358 228L398 230C389.496 223.039 368.591 227 358 227M254 228L255 229L254 228z"/>
<path style="fill:#fb6bac; stroke:none;" d="M255 228L256 229L255 228z"/>
<path style="fill:#fe86b9; stroke:none;" d="M254 229L255 230L254 229z"/>
<path style="fill:#fb6bac; stroke:none;" d="M268.333 229.667L268.667 230.333L268.333 229.667z"/>
<path style="fill:#c1b3b9; stroke:none;" d="M318 229L319 230L318 229M400 229L416 242C416.979 234.654 405.919 230.055 400 229M253 230L254 231L253 230z"/>
<path style="fill:#fb6bac; stroke:none;" d="M254 230L255 231L254 230z"/>
<path style="fill:#fe86b9; stroke:none;" d="M253 231L254 232L253 231z"/>
<path style="fill:#fb6bac; stroke:none;" d="M267 231L263 240L264 240L267 231z"/>
<path style="fill:#c1b3b9; stroke:none;" d="M252 232L253 233L252 232z"/>
<path style="fill:#fb6bac; stroke:none;" d="M252 233L253 234L252 233z"/>
<path style="fill:#c1b3b9; stroke:none;" d="M317 233L318 234L317 233z"/>
<path style="fill:#fe86b9; stroke:none;" d="M251 234L252 235L251 234z"/>
<path style="fill:#fb6bac; stroke:none;" d="M251 235L252 236L251 235z"/>
<path style="fill:#fe86b9; stroke:none;" d="M250 236L251 237L250 236z"/>
<path style="fill:#c1b3b9; stroke:none;" d="M316.333 236.667L316.667 237.333L316.333 236.667z"/>
<path style="fill:#fb6bac; stroke:none;" d="M250 237L251 238L250 237z"/>
<path style="fill:#fe86b9; stroke:none;" d="M249 238L250 239L249 238z"/>
<path style="fill:#fb6bac; stroke:none;" d="M249 239L250 240L249 239M248 240L249 241L248 240M262 240L259 247L260 247L262 240z"/>
<path style="fill:#c1b3b9; stroke:none;" d="M315 240L316 241L315 240z"/>
<path style="fill:#fe86b9; stroke:none;" d="M247 241L248 242L247 241z"/>
<path style="fill:#fb6bac; stroke:none;" d="M247 242L248 243L247 242z"/>
<path style="fill:#fe86b9; stroke:none;" d="M246 243L247 244L246 243z"/>
<path style="fill:#c1b3b9; stroke:none;" d="M314.333 243.667L314.667 244.333L314.333 243.667M418 243C418.419 252.752 420.873 261.214 418.237 271C415.809 280.014 409.267 288.4 404.269 296.17C396.304 308.549 389.138 321.46 381.421 334C353.981 378.587 326.177 423.214 300.025 468.572C291.16 483.946 281.268 498.691 272.333 514C266.374 524.211 261.235 536.473 251 543L251 544C259.615 540.725 262.633 533.293 267.344 526C276.229 512.245 284.345 497.955 292.911 484C326.941 428.561 359.975 372.484 393.939 317C405.002 298.928 433.631 265.494 418 243z"/>
<path style="fill:#fb6bac; stroke:none;" d="M246 244L247 245L246 244z"/>
<path style="fill:#fe86b9; stroke:none;" d="M245 245L246 246L245 245z"/>
<path style="fill:#c1b3b9; stroke:none;" d="M244 246L245 247L244 246z"/>
<path style="fill:#fb6bac; stroke:none;" d="M245 246L246 247L245 246z"/>
<path style="fill:#c1b3b9; stroke:none;" d="M313.333 246.667L313.667 247.333L313.333 246.667z"/>
<path style="fill:#fe86b9; stroke:none;" d="M244 247L245 248L244 247z"/>
<path style="fill:#fb6bac; stroke:none;" d="M258 247L255 254L256 254L258 247z"/>
<path style="fill:#c1b3b9; stroke:none;" d="M243 248L244 249L243 248z"/>
<path style="fill:#fb6bac; stroke:none;" d="M243 249L244 250L243 249z"/>
<path style="fill:#c1b3b9; stroke:none;" d="M242 250L243 251L242 250M312 250L313 251L312 250z"/>
<path style="fill:#fb6bac; stroke:none;" d="M242 251L243 252L242 251z"/>
<path style="fill:#c1b3b9; stroke:none;" d="M314 251L314 252L393 252L368 251L314 251z"/>
<path style="fill:#fe86b9; stroke:none;" d="M241 252L242 253L241 252z"/>
<path style="fill:#c1b3b9; stroke:none;" d="M394 252L395 253L394 252z"/>
<path style="fill:#fb6bac; stroke:none;" d="M241 253L242 254L241 253z"/>
<path style="fill:#c1b3b9; stroke:none;" d="M395.333 253.667L395.667 254.333L395.333 253.667z"/>
<path style="fill:#fe86b9; stroke:none;" d="M240 254L241 255L240 254z"/>
<path style="fill:#fb6bac; stroke:none;" d="M254.333 254.667L254.667 255.333L254.333 254.667M240 255L241 256L240 255z"/>
<path style="fill:#fe86b9; stroke:none;" d="M239 256L240 257L239 256z"/>
<path style="fill:#fb6bac; stroke:none;" d="M253.333 256.667L253.667 257.333L253.333 256.667z"/>
<path style="fill:#c1b3b9; stroke:none;" d="M396.333 256.667L396.667 257.333L396.333 256.667M238 257L239 258L238 257z"/>
<path style="fill:#fb6bac; stroke:none;" d="M239 257L240 258L239 257M238 258L239 259L238 258M252 258L251 261L252 258z"/>
<path style="fill:#c1b3b9; stroke:none;" d="M237 259L238 260L237 259M395 259L396 260L395 259z"/>
<path style="fill:#fb6bac; stroke:none;" d="M237 260L238 261L237 260z"/>
<path style="fill:#fe86b9; stroke:none;" d="M236 261L237 262L236 261z"/>
<path style="fill:#fb6bac; stroke:none;" d="M250.333 261.667L250.667 262.333L250.333 261.667z"/>
<path style="fill:#c1b3b9; stroke:none;" d="M394 261L395 262L394 261z"/>
<path style="fill:#fb6bac; stroke:none;" d="M236 262L237 263L236 262z"/>
<path style="fill:#fe86b9; stroke:none;" d="M235 263L236 264L235 263z"/>
<path style="fill:#fb6bac; stroke:none;" d="M249 263L246 270L247 270L249 263z"/>
<path style="fill:#c1b3b9; stroke:none;" d="M393 263L394 264L393 263M234 264L235 265L234 264z"/>
<path style="fill:#fb6bac; stroke:none;" d="M235 264L236 265L235 264z"/>
<path style="fill:#c1b3b9; stroke:none;" d="M392 264L393 265L392 264z"/>
<path style="fill:#fb6bac; stroke:none;" d="M234 265L235 266L234 265z"/>
<path style="fill:#c1b3b9; stroke:none;" d="M233 266L234 267L233 266M391 266L392 267L391 266z"/>
<path style="fill:#fb6bac; stroke:none;" d="M233 267L234 268L233 267z"/>
<path style="fill:#fe86b9; stroke:none;" d="M232 268L233 269L232 268z"/>
<path style="fill:#fb6bac; stroke:none;" d="M232 269L233 270L232 269z"/>
<path style="fill:#c1b3b9; stroke:none;" d="M389 269L390 270L389 269z"/>
<path style="fill:#fe86b9; stroke:none;" d="M231 270L232 271L231 270z"/>
<path style="fill:#fb6bac; stroke:none;" d="M245.333 270.667L245.667 271.333L245.333 270.667z"/>
<path style="fill:#c1b3b9; stroke:none;" d="M230 271L231 272L230 271z"/>
<path style="fill:#fb6bac; stroke:none;" d="M231 271L232 272L231 271z"/>
<path style="fill:#c1b3b9; stroke:none;" d="M388 271L389 272L388 271z"/>
<path style="fill:#fe86b9; stroke:none;" d="M230 272L231 273L230 272z"/>
<path style="fill:#fb6bac; stroke:none;" d="M244.333 272.667L244.667 273.333L244.333 272.667z"/>
<path style="fill:#c1b3b9; stroke:none;" d="M229 273L230 274L229 273z"/>
<path style="fill:#fb6bac; stroke:none;" d="M230 273L231 274L230 273z"/>
<path style="fill:#c1b3b9; stroke:none;" d="M387 273L388 274L387 273z"/>
<path style="fill:#fb6bac; stroke:none;" d="M229 274L230 275L229 274M243 274L241 279L243 274z"/>
<path style="fill:#c1b3b9; stroke:none;" d="M386 274L387 275L386 274M228 275L229 276L228 275z"/>
<path style="fill:#fb6bac; stroke:none;" d="M228 276L229 277L228 276z"/>
<path style="fill:#c1b3b9; stroke:none;" d="M385 276L386 277L385 276z"/>
<path style="fill:#fe86b9; stroke:none;" d="M227 277L228 278L227 277z"/>
<path style="fill:#fb6bac; stroke:none;" d="M227 278L228 279L227 278z"/>
<path style="fill:#c1b3b9; stroke:none;" d="M384 278L385 279L384 278z"/>
<path style="fill:#fe86b9; stroke:none;" d="M226 279L227 280L226 279z"/>
<path style="fill:#fb6bac; stroke:none;" d="M240 279L241 280L240 279z"/>
<path style="fill:#c1b3b9; stroke:none;" d="M225 280L226 281L225 280z"/>
<path style="fill:#fb6bac; stroke:none;" d="M226 280L227 281L226 280z"/>
<path style="fill:#fe86b9; stroke:none;" d="M225 281L226 282L225 281z"/>
<path style="fill:#fb6bac; stroke:none;" d="M239 281L237 286L238 286L239 281z"/>
<path style="fill:#c1b3b9; stroke:none;" d="M382 281L383 282L382 281M224 282L225 283L224 282z"/>
<path style="fill:#fb6bac; stroke:none;" d="M224 283L225 284L224 283z"/>
<path style="fill:#c1b3b9; stroke:none;" d="M381 283L382 284L381 283z"/>
<path style="fill:#fe86b9; stroke:none;" d="M223 284L224 285L223 284z"/>
<path style="fill:#c1b3b9; stroke:none;" d="M380.333 284.667L380.667 285.333L380.333 284.667z"/>
<path style="fill:#fb6bac; stroke:none;" d="M223 285L224 286L223 285z"/>
<path style="fill:#fe86b9; stroke:none;" d="M222 286L223 287L222 286z"/>
<path style="fill:#fb6bac; stroke:none;" d="M236.333 286.667L236.667 287.333L236.333 286.667z"/>
<path style="fill:#c1b3b9; stroke:none;" d="M379 286L380 287L379 286z"/>
<path style="fill:#fb6bac; stroke:none;" d="M222 287L223 288L222 287z"/>
<path style="fill:#fe86b9; stroke:none;" d="M221 288L222 289L221 288z"/>
<path style="fill:#fb6bac; stroke:none;" d="M235.333 288.667L235.667 289.333L235.333 288.667z"/>
<path style="fill:#c1b3b9; stroke:none;" d="M378 288L379 289L378 288M220 289L221 290L220 289z"/>
<path style="fill:#fb6bac; stroke:none;" d="M221 289L222 290L221 289M220 290L221 291L220 290M234.333 290.667L234.667 291.333L234.333 290.667z"/>
<path style="fill:#c1b3b9; stroke:none;" d="M377 290L378 291L377 290M219 291L220 292L219 291M376 291L377 292L376 291z"/>
<path style="fill:#fb6bac; stroke:none;" d="M219 292L220 293L219 292M233 292L234 293L233 292z"/>
<path style="fill:#fe86b9; stroke:none;" d="M218 293L219 294L218 293z"/>
<path style="fill:#fb6bac; stroke:none;" d="M232.333 293.667L232.667 294.333L232.333 293.667z"/>
<path style="fill:#c1b3b9; stroke:none;" d="M375 293L376 294L375 293z"/>
<path style="fill:#fb6bac; stroke:none;" d="M218 294L219 295L218 294z"/>
<path style="fill:#c1b3b9; stroke:none;" d="M374.333 294.667L374.667 295.333L374.333 294.667z"/>
<path style="fill:#fe86b9; stroke:none;" d="M217 295L218 296L217 295z"/>
<path style="fill:#fb6bac; stroke:none;" d="M231.333 295.667L231.667 296.333L231.333 295.667M217 296L218 297L217 296z"/>
<path style="fill:#c1b3b9; stroke:none;" d="M373 296L374 297L373 296z"/>
<path style="fill:#fe86b9; stroke:none;" d="M216 297L217 298L216 297z"/>
<path style="fill:#fb6bac; stroke:none;" d="M230.333 297.667L230.667 298.333L230.333 297.667z"/>
<path style="fill:#c1b3b9; stroke:none;" d="M215 298L216 299L215 298M372 298L373 299L372 298z"/>
<path style="fill:#fb6bac; stroke:none;" d="M215 299L216 300L215 299M229 299L225 308L226 308L229 299z"/>
<path style="fill:#fe86b9; stroke:none;" d="M214 300L215 301L214 300z"/>
<path style="fill:#fb6bac; stroke:none;" d="M214 301L215 302L214 301z"/>
<path style="fill:#c1b3b9; stroke:none;" d="M370 301L371 302L370 301z"/>
<path style="fill:#fe86b9; stroke:none;" d="M213 302L214 303L213 302z"/>
<path style="fill:#fb6bac; stroke:none;" d="M213 303L214 304L213 303z"/>
<path style="fill:#c1b3b9; stroke:none;" d="M369 303L370 304L369 303z"/>
<path style="fill:#fe86b9; stroke:none;" d="M212 304L213 305L212 304z"/>
<path style="fill:#c1b3b9; stroke:none;" d="M368.333 304.667L368.667 305.333L368.333 304.667M211 305L212 306L211 305z"/>
<path style="fill:#fb6bac; stroke:none;" d="M212 305L213 306L212 305z"/>
<path style="fill:#fe86b9; stroke:none;" d="M211 306L212 307L211 306z"/>
<path style="fill:#c1b3b9; stroke:none;" d="M367 306L368 307L367 306M210 307L211 308L210 307z"/>
<path style="fill:#fb6bac; stroke:none;" d="M210 308L211 309L210 308M224.333 308.667L224.667 309.333L224.333 308.667z"/>
<path style="fill:#c1b3b9; stroke:none;" d="M366 308L367 309L366 308z"/>
<path style="fill:#fe86b9; stroke:none;" d="M209 309L210 310L209 309z"/>
<path style="fill:#fb6bac; stroke:none;" d="M209 310L210 311L209 310M223 310L224 311L223 310z"/>
<path style="fill:#c1b3b9; stroke:none;" d="M365 310L366 311L365 310z"/>
<path style="fill:#fe86b9; stroke:none;" d="M208 311L209 312L208 311z"/>
<path style="fill:#fb6bac; stroke:none;" d="M222 311L221 315L222 315L222 311z"/>
<path style="fill:#c1b3b9; stroke:none;" d="M364 311L365 312L364 311z"/>
<path style="fill:#fb6bac; stroke:none;" d="M208 312L209 313L208 312z"/>
<path style="fill:#fe86b9; stroke:none;" d="M207 313L208 314L207 313z"/>
<path style="fill:#c1b3b9; stroke:none;" d="M363 313L364 314L363 313M206 314L207 315L206 314z"/>
<path style="fill:#fb6bac; stroke:none;" d="M207 314L208 315L207 314M206 315L207 316L206 315M220 315L221 316L220 315z"/>
<path style="fill:#c1b3b9; stroke:none;" d="M362 315L363 316L362 315M205 316L206 317L205 316M361 316L362 317L361 316z"/>
<path style="fill:#fb6bac; stroke:none;" d="M205 317L206 318L205 317M219 317L217 328L208 328L208 329L218 329L219 317z"/>
<path style="fill:#fe86b9; stroke:none;" d="M204 318L205 319L204 318z"/>
<path style="fill:#c1b3b9; stroke:none;" d="M360 318L361 319L360 318z"/>
<path style="fill:#fb6bac; stroke:none;" d="M204 319L205 320L204 319z"/>
<path style="fill:#fe86b9; stroke:none;" d="M203 320L204 321L203 320z"/>
<path style="fill:#fb6bac; stroke:none;" d="M203 321L204 322L203 321z"/>
<path style="fill:#c1b3b9; stroke:none;" d="M358 321L359 322L358 321z"/>
<path style="fill:#fe86b9; stroke:none;" d="M202 322L202 326L203 326L202 322z"/>
<path style="fill:#c1b3b9; stroke:none;" d="M357 323L358 324L357 323M356 325L357 326L356 325M202 326L203 327L202 326z"/>
<path style="fill:#fb6bac; stroke:none;" d="M287 326L300 328L298 336L302 327L287 326z"/>
<path style="fill:#c1b3b9; stroke:none;" d="M355 326L356 327L355 326z"/>
<path style="fill:#fb6bac; stroke:none;" d="M203 327L204 328L203 327z"/>
<path style="fill:#c1b3b9; stroke:none;" d="M278.667 327.333L279.333 327.667L278.667 327.333z"/>
<path style="fill:#fe86b9; stroke:none;" d="M204 328L205 329L204 328z"/>
<path style="fill:#fb6bac; stroke:none;" d="M205.667 328.333L206.333 328.667L205.667 328.333z"/>
<path style="fill:#c1b3b9; stroke:none;" d="M230 328L230 329L251 329L230 328z"/>
<path style="fill:#f9076d; stroke:none;" d="M287 328C282.681 346.224 274.039 364.462 267.424 382C256.012 412.254 245.269 442.764 233.808 473C229.403 484.62 225.287 496.354 220.95 508C219.642 511.513 216.114 518.076 219.603 521.377C223.99 525.527 228.303 516.819 230 514C236.482 503.23 240.36 491.705 244.808 480C257.792 445.827 270.436 411.436 282.692 377C288.294 361.261 297.556 344.548 300 328L287 328z"/>
<path style="fill:#c1b3b9; stroke:none;" d="M354 328L355 329L354 328M206 329L206 330L212 330L206 329z"/>
<path style="fill:#fb6bac; stroke:none;" d="M286 330L287 331L286 330z"/>
<path style="fill:#c1b3b9; stroke:none;" d="M353 330L354 331L353 330z"/>
<path style="fill:#fe86b9; stroke:none;" d="M285 331L286 332L285 331z"/>
<path style="fill:#fb6bac; stroke:none;" d="M285.333 332.667L285.667 333.333L285.333 332.667z"/>
<path style="fill:#c1b3b9; stroke:none;" d="M284 333L285 334L284 333M351 333L352 334L351 333z"/>
<path style="fill:#fe86b9; stroke:none;" d="M284 334L285 335L284 334z"/>
<path style="fill:#fb6bac; stroke:none;" d="M284 335L285 336L284 335z"/>
<path style="fill:#c1b3b9; stroke:none;" d="M350 335L351 336L350 335M283 336L284 337L283 336M349 336L350 337L349 336z"/>
<path style="fill:#fe86b9; stroke:none;" d="M283 337L284 338L283 337z"/>
<path style="fill:#fb6bac; stroke:none;" d="M297.333 337.667L297.667 338.333L297.333 337.667M283 338L284 339L283 338z"/>
<path style="fill:#c1b3b9; stroke:none;" d="M348 338L349 339L348 338z"/>
<path style="fill:#fe86b9; stroke:none;" d="M282 339L283 340L282 339z"/>
<path style="fill:#fb6bac; stroke:none;" d="M296 339L296 342L297 342L296 339M282.333 340.667L282.667 341.333L282.333 340.667z"/>
<path style="fill:#c1b3b9; stroke:none;" d="M347 340L348 341L347 340M346 341L347 342L346 341z"/>
<path style="fill:#fe86b9; stroke:none;" d="M281 342L282 343L281 342z"/>
<path style="fill:#fb6bac; stroke:none;" d="M295 342L295 345L296 345L295 342M281 343L282 344L281 343z"/>
<path style="fill:#c1b3b9; stroke:none;" d="M345 343L346 344L345 343M280 344L281 345L280 344z"/>
<path style="fill:#fe86b9; stroke:none;" d="M280 345L281 346L280 345z"/>
<path style="fill:#fb6bac; stroke:none;" d="M294.333 345.667L294.667 346.333L294.333 345.667z"/>
<path style="fill:#c1b3b9; stroke:none;" d="M344 345L345 346L344 345z"/>
<path style="fill:#fb6bac; stroke:none;" d="M280 346L281 347L280 346z"/>
<path style="fill:#c1b3b9; stroke:none;" d="M279 347L280 348L279 347z"/>
<path style="fill:#fb6bac; stroke:none;" d="M293 347L293 350L294 350L293 347z"/>
<path style="fill:#c1b3b9; stroke:none;" d="M343 347L344 348L343 347M186 348L186 349L191 351L191 350L186 348z"/>
<path style="fill:#fe86b9; stroke:none;" d="M279 348L280 349L279 348z"/>
<path style="fill:#c1b3b9; stroke:none;" d="M342 348L343 349L342 348z"/>
<path style="fill:#fb6bac; stroke:none;" d="M279 349L280 350L279 349z"/>
<path style="fill:#c1b3b9; stroke:none;" d="M192 350L192 352L195 352L195 350L192 350z"/>
<path style="fill:#fe86b9; stroke:none;" d="M278 350L279 351L278 350z"/>
<path style="fill:#fb6bac; stroke:none;" d="M292.333 350.667L292.667 351.333L292.333 350.667z"/>
<path style="fill:#c1b3b9; stroke:none;" d="M341 350L342 351L341 350M197 351L197 353L251 354C236.72 395.164 216.034 436.659 206 479C213.758 472.944 216.584 453.199 220.064 444C231.591 413.534 245.572 382.45 254 351L197 351z"/>
<path style="fill:#fb6bac; stroke:none;" d="M278 351L279 352L278 351z"/>
<path style="fill:#c1b3b9; stroke:none;" d="M277 352L278 353L277 352z"/>
<path style="fill:#fe86b9; stroke:none;" d="M277 353L278 354L277 353z"/>
<path style="fill:#fb6bac; stroke:none;" d="M291 353L291 356L292 356L291 353z"/>
<path style="fill:#c1b3b9; stroke:none;" d="M339 353L340 354L339 353z"/>
<path style="fill:#fb6bac; stroke:none;" d="M277 354L278 355L277 354z"/>
<path style="fill:#c1b3b9; stroke:none;" d="M276 355L277 356L276 355M338 355L339 356L338 355z"/>
<path style="fill:#fe86b9; stroke:none;" d="M276 356L277 357L276 356z"/>
<path style="fill:#fb6bac; stroke:none;" d="M290 356L288 364L289 364L290 356z"/>
<path style="fill:#c1b3b9; stroke:none;" d="M337 356L338 357L337 356z"/>
<path style="fill:#fb6bac; stroke:none;" d="M276 357L277 358L276 357z"/>
<path style="fill:#fe86b9; stroke:none;" d="M275.333 358.667L275.667 359.333L275.333 358.667z"/>
<path style="fill:#c1b3b9; stroke:none;" d="M336 358L337 359L336 358z"/>
<path style="fill:#fb6bac; stroke:none;" d="M275 360L276 361L275 360z"/>
<path style="fill:#c1b3b9; stroke:none;" d="M335 360L336 361L335 360z"/>
<path style="fill:#fe86b9; stroke:none;" d="M274 361L275 362L274 361z"/>
<path style="fill:#fb6bac; stroke:none;" d="M274 362L275 363L274 362z"/>
<path style="fill:#c1b3b9; stroke:none;" d="M273 363L274 364L273 363M333 363L334 364L333 363z"/>
<path style="fill:#fe86b9; stroke:none;" d="M273 364L274 365L273 364z"/>
<path style="fill:#fb6bac; stroke:none;" d="M287 364L286 368L287 368L287 364z"/>
<path style="fill:#c1b3b9; stroke:none;" d="M332.333 364.667L332.667 365.333L332.333 364.667z"/>
<path style="fill:#fb6bac; stroke:none;" d="M273 365L274 366L273 365z"/>
<path style="fill:#fe86b9; stroke:none;" d="M272.333 366.667L272.667 367.333L272.333 366.667z"/>
<path style="fill:#c1b3b9; stroke:none;" d="M331 367L332 368L331 367M330 368L331 369L330 368z"/>
<path style="fill:#fe86b9; stroke:none;" d="M271 369L272 370L271 369z"/>
<path style="fill:#fb6bac; stroke:none;" d="M285 369L285 372L286 372L285 369M271.333 370.667L271.667 371.333L271.333 370.667z"/>
<path style="fill:#c1b3b9; stroke:none;" d="M329 370L330 371L329 370M270 371L271 372L270 371M328 371L329 372L328 371z"/>
<path style="fill:#fe86b9; stroke:none;" d="M270 372L271 373L270 372z"/>
<path style="fill:#fb6bac; stroke:none;" d="M284 372L283 377L284 377L284 372M270 373L271 374L270 373z"/>
<path style="fill:#c1b3b9; stroke:none;" d="M327 373L328 374L327 373M269 374L270 375L269 374z"/>
<path style="fill:#fe86b9; stroke:none;" d="M269 375L270 376L269 375z"/>
<path style="fill:#c1b3b9; stroke:none;" d="M326 375L327 376L326 375z"/>
<path style="fill:#fb6bac; stroke:none;" d="M269 376L270 377L269 376z"/>
<path style="fill:#fe86b9; stroke:none;" d="M268 377L269 378L268 377z"/>
<path style="fill:#fb6bac; stroke:none;" d="M282 377L282 380L283 380L282 377z"/>
<path style="fill:#c1b3b9; stroke:none;" d="M325 377L326 378L325 377z"/>
<path style="fill:#fb6bac; stroke:none;" d="M268.333 378.667L268.667 379.333L268.333 378.667z"/>
<path style="fill:#c1b3b9; stroke:none;" d="M324 378L325 379L324 378z"/>
<path style="fill:#fe86b9; stroke:none;" d="M267 380L268 381L267 380z"/>
<path style="fill:#fb6bac; stroke:none;" d="M281 380L282 384L283 384L281 380z"/>
<path style="fill:#c1b3b9; stroke:none;" d="M323 380L324 381L323 380z"/>
<path style="fill:#fb6bac; stroke:none;" d="M267 381L268 382L267 381z"/>
<path style="fill:#c1b3b9; stroke:none;" d="M266 382L267 383L266 382M322 382L323 383L322 382z"/>
<path style="fill:#fe86b9; stroke:none;" d="M266 383L267 384L266 383z"/>
<path style="fill:#fb6bac; stroke:none;" d="M280.333 383.667L280.667 384.333L280.333 383.667M266 384L267 385L266 384z"/>
<path style="fill:#c1b3b9; stroke:none;" d="M320.333 384.667L320.667 385.333L320.333 384.667z"/>
<path style="fill:#fe86b9; stroke:none;" d="M265 385L266 386L265 385z"/>
<path style="fill:#fb6bac; stroke:none;" d="M265.333 386.667L265.667 387.333L265.333 386.667M279.333 386.667L279.667 387.333L279.333 386.667z"/>
<path style="fill:#c1b3b9; stroke:none;" d="M319 387L320 388L319 387z"/>
<path style="fill:#fe86b9; stroke:none;" d="M264 388L265 389L264 388z"/>
<path style="fill:#fb6bac; stroke:none;" d="M278 388L278 391L279 391L278 388z"/>
<path style="fill:#c1b3b9; stroke:none;" d="M318 388L319 389L318 388z"/>
<path style="fill:#fb6bac; stroke:none;" d="M264 389L265 390L264 389z"/>
<path style="fill:#c1b3b9; stroke:none;" d="M263 390L264 391L263 390M317 390L318 391L317 390z"/>
<path style="fill:#fe86b9; stroke:none;" d="M263 391L264 392L263 391z"/>
<path style="fill:#fb6bac; stroke:none;" d="M277 391L276 396L277 396L277 391M263 392L264 393L263 392z"/>
<path style="fill:#c1b3b9; stroke:none;" d="M316 392L317 393L316 392M262 393L263 394L262 393M315 393L316 394L315 393z"/>
<path style="fill:#fe86b9; stroke:none;" d="M262 394L263 395L262 394z"/>
<path style="fill:#fb6bac; stroke:none;" d="M262 395L263 396L262 395z"/>
<path style="fill:#c1b3b9; stroke:none;" d="M314 395L315 396L314 395z"/>
<path style="fill:#fe86b9; stroke:none;" d="M261 396L262 397L261 396z"/>
<path style="fill:#fb6bac; stroke:none;" d="M275 396L275 399L276 399L275 396M261.333 397.667L261.667 398.333L261.333 397.667z"/>
<path style="fill:#c1b3b9; stroke:none;" d="M313 397L314 398L313 397M260 398L261 399L260 398z"/>
<path style="fill:#fe86b9; stroke:none;" d="M260 399L261 400L260 399z"/>
<path style="fill:#fb6bac; stroke:none;" d="M274 399L274 402L275 402L274 399M260 400L261 401L260 400z"/>
<path style="fill:#c1b3b9; stroke:none;" d="M311 400L312 401L311 400M259 401L260 402L259 401z"/>
<path style="fill:#fe86b9; stroke:none;" d="M259 402L260 403L259 402z"/>
<path style="fill:#fb6bac; stroke:none;" d="M273 402L272 407L273 407L273 402z"/>
<path style="fill:#c1b3b9; stroke:none;" d="M310 402L311 403L310 402z"/>
<path style="fill:#fb6bac; stroke:none;" d="M259 403L260 404L259 403z"/>
<path style="fill:#c1b3b9; stroke:none;" d="M309 403L310 404L309 403z"/>
<path style="fill:#fe86b9; stroke:none;" d="M258 404L259 405L258 404z"/>
<path style="fill:#fb6bac; stroke:none;" d="M258.333 405.667L258.667 406.333L258.333 405.667z"/>
<path style="fill:#c1b3b9; stroke:none;" d="M308 405L309 406L308 405z"/>
<path style="fill:#fe86b9; stroke:none;" d="M257 407L258 408L257 407z"/>
<path style="fill:#fb6bac; stroke:none;" d="M271 407L271 410L272 410L271 407z"/>
<path style="fill:#c1b3b9; stroke:none;" d="M307 407L308 408L307 407z"/>
<path style="fill:#fb6bac; stroke:none;" d="M257.333 408.667L257.667 409.333L257.333 408.667z"/>
<path style="fill:#c1b3b9; stroke:none;" d="M306.333 408.667L306.667 409.333L306.333 408.667M256 409L257 410L256 409z"/>
<path style="fill:#fe86b9; stroke:none;" d="M256 410L257 411L256 410z"/>
<path style="fill:#fb6bac; stroke:none;" d="M270.333 410.667L270.667 411.333L270.333 410.667z"/>
<path style="fill:#c1b3b9; stroke:none;" d="M305 410L306 411L305 410z"/>
<path style="fill:#fb6bac; stroke:none;" d="M256 411L257 412L256 411z"/>
<path style="fill:#c1b3b9; stroke:none;" d="M255 412L256 413L255 412z"/>
<path style="fill:#fb6bac; stroke:none;" d="M269 412L268 418L269 418L269 412z"/>
<path style="fill:#c1b3b9; stroke:none;" d="M304 412L305 413L304 412z"/>
<path style="fill:#fe86b9; stroke:none;" d="M255 413L256 414L255 413z"/>
<path style="fill:#fb6bac; stroke:none;" d="M255 414L256 415L255 414z"/>
<path style="fill:#c1b3b9; stroke:none;" d="M303 414L304 415L303 414M254 415L255 416L254 415z"/>
<path style="fill:#fb6bac; stroke:none;" d="M254.333 416.667L254.667 417.333L254.333 416.667z"/>
<path style="fill:#c1b3b9; stroke:none;" d="M253 417L254 418L253 417M301 417L302 418L301 417z"/>
<path style="fill:#fe86b9; stroke:none;" d="M253 418L254 419L253 418z"/>
<path style="fill:#fb6bac; stroke:none;" d="M267 418L267 421L268 421L267 418M253 419L254 420L253 419z"/>
<path style="fill:#c1b3b9; stroke:none;" d="M300 419L301 420L300 419M252 420L253 421L252 420M299 420L300 421L299 420z"/>
<path style="fill:#fe86b9; stroke:none;" d="M252 421L253 422L252 421z"/>
<path style="fill:#fb6bac; stroke:none;" d="M266.333 421.667L266.667 422.333L266.333 421.667M252 422L253 423L252 422z"/>
<path style="fill:#c1b3b9; stroke:none;" d="M298 422L299 423L298 422M251 423L252 424L251 423z"/>
<path style="fill:#fb6bac; stroke:none;" d="M265 423L265 426L266 426L265 423M251.333 424.667L251.667 425.333L251.333 424.667z"/>
<path style="fill:#c1b3b9; stroke:none;" d="M250 425L251 426L250 425M296 425L297 426L296 425z"/>
<path style="fill:#fe86b9; stroke:none;" d="M250 426L251 427L250 426z"/>
<path style="fill:#fb6bac; stroke:none;" d="M264.333 426.667L264.667 427.333L264.333 426.667M250 427L251 428L250 427z"/>
<path style="fill:#c1b3b9; stroke:none;" d="M295 427L296 428L295 427M249 428L250 429L249 428M294.333 428.667L294.667 429.333L294.333 428.667z"/>
<path style="fill:#fe86b9; stroke:none;" d="M249 429L250 430L249 429z"/>
<path style="fill:#fb6bac; stroke:none;" d="M263.333 429.667L263.667 430.333L263.333 429.667M249 430L250 431L249 430z"/>
<path style="fill:#c1b3b9; stroke:none;" d="M293 430L294 431L293 430M248 431L249 432L248 431z"/>
<path style="fill:#fb6bac; stroke:none;" d="M248.333 432.667L248.667 433.333L248.333 432.667M262 432L261 437L262 437L262 432z"/>
<path style="fill:#c1b3b9; stroke:none;" d="M292 432L293 433L292 432M291 433L292 434L291 433z"/>
<path style="fill:#fe86b9; stroke:none;" d="M247 434L248 435L247 434z"/>
<path style="fill:#fb6bac; stroke:none;" d="M247 435L248 436L247 435z"/>
<path style="fill:#c1b3b9; stroke:none;" d="M290 435L291 436L290 435M246 436L247 437L246 436z"/>
<path style="fill:#fe86b9; stroke:none;" d="M246 437L247 438L246 437z"/>
<path style="fill:#fb6bac; stroke:none;" d="M260.333 437.667L260.667 438.333L260.333 437.667z"/>
<path style="fill:#c1b3b9; stroke:none;" d="M289 437L290 438L289 437z"/>
<path style="fill:#fb6bac; stroke:none;" d="M246 438L247 439L246 438z"/>
<path style="fill:#c1b3b9; stroke:none;" d="M288.333 438.667L288.667 439.333L288.333 438.667M245 439L246 440L245 439z"/>
<path style="fill:#fe86b9; stroke:none;" d="M245 440L246 441L245 440z"/>
<path style="fill:#fb6bac; stroke:none;" d="M259 440L258 445L259 445L259 440M245 441L246 442L245 441z"/>
<path style="fill:#fe86b9; stroke:none;" d="M244 442L245 443L244 442z"/>
<path style="fill:#c1b3b9; stroke:none;" d="M286 442L287 443L286 442z"/>
<path style="fill:#fb6bac; stroke:none;" d="M244.333 443.667L244.667 444.333L244.333 443.667z"/>
<path style="fill:#c1b3b9; stroke:none;" d="M285.333 443.667L285.667 444.333L285.333 443.667M243 444L244 445L243 444z"/>
<path style="fill:#fe86b9; stroke:none;" d="M243 445L244 446L243 445z"/>
<path style="fill:#fb6bac; stroke:none;" d="M257 445L256 450L257 450L257 445z"/>
<path style="fill:#c1b3b9; stroke:none;" d="M284 445L285 446L284 445z"/>
<path style="fill:#fb6bac; stroke:none;" d="M243 446L244 447L243 446z"/>
<path style="fill:#c1b3b9; stroke:none;" d="M242 447L243 448L242 447M283 447L284 448L283 447z"/>
<path style="fill:#fe86b9; stroke:none;" d="M242 448L243 449L242 448z"/>
<path style="fill:#c1b3b9; stroke:none;" d="M282.333 448.667L282.667 449.333L282.333 448.667z"/>
<path style="fill:#fb6bac; stroke:none;" d="M242 449L243 450L242 449z"/>
<path style="fill:#c1b3b9; stroke:none;" d="M241 450L242 451L241 450z"/>
<path style="fill:#fb6bac; stroke:none;" d="M255 450L255 453L256 453L255 450z"/>
<path style="fill:#c1b3b9; stroke:none;" d="M281 450L282 451L281 450z"/>
<path style="fill:#fe86b9; stroke:none;" d="M241 451L242 452L241 451z"/>
<path style="fill:#fb6bac; stroke:none;" d="M241 452L242 453L241 452z"/>
<path style="fill:#c1b3b9; stroke:none;" d="M280 452L281 453L280 452z"/>
<path style="fill:#fe86b9; stroke:none;" d="M240 453L241 454L240 453z"/>
<path style="fill:#fb6bac; stroke:none;" d="M254 453L254 456L255 456L254 453M240 454L241 455L240 454z"/>
<path style="fill:#c1b3b9; stroke:none;" d="M279 454L280 455L279 454M278 455L279 456L278 455z"/>
<path style="fill:#fe86b9; stroke:none;" d="M239 456L240 457L239 456z"/>
<path style="fill:#fb6bac; stroke:none;" d="M253 456L252 461L253 461L253 456M239 457L240 458L239 457z"/>
<path style="fill:#c1b3b9; stroke:none;" d="M277 457L278 458L277 457M238 458L239 459L238 458z"/>
<path style="fill:#fe86b9; stroke:none;" d="M238 459L239 460L238 459z"/>
<path style="fill:#c1b3b9; stroke:none;" d="M276 459L277 460L276 459z"/>
<path style="fill:#fb6bac; stroke:none;" d="M238 460L239 461L238 460z"/>
<path style="fill:#c1b3b9; stroke:none;" d="M275 460L276 461L275 460z"/>
<path style="fill:#fe86b9; stroke:none;" d="M237 461L238 462L237 461z"/>
<path style="fill:#fb6bac; stroke:none;" d="M251 461L251 464L252 464L251 461M237.333 462.667L237.667 463.333L237.333 462.667z"/>
<path style="fill:#c1b3b9; stroke:none;" d="M274 462L275 463L274 462z"/>
<path style="fill:#fe86b9; stroke:none;" d="M236 464L237 465L236 464z"/>
<path style="fill:#fb6bac; stroke:none;" d="M250 464L250 467L251 467L250 464M236 465L237 466L236 465z"/>
<path style="fill:#c1b3b9; stroke:none;" d="M272 465L273 466L272 465M235 466L236 467L235 466z"/>
<path style="fill:#fe86b9; stroke:none;" d="M235 467L236 468L235 467z"/>
<path style="fill:#fb6bac; stroke:none;" d="M249 467L248 472L249 472L249 467z"/>
<path style="fill:#c1b3b9; stroke:none;" d="M271 467L272 468L271 467z"/>
<path style="fill:#fb6bac; stroke:none;" d="M235 468L236 469L235 468z"/>
<path style="fill:#c1b3b9; stroke:none;" d="M270.333 468.667L270.667 469.333L270.333 468.667z"/>
<path style="fill:#fe86b9; stroke:none;" d="M234 469L235 470L234 469z"/>
<path style="fill:#fb6bac; stroke:none;" d="M234.333 470.667L234.667 471.333L234.333 470.667z"/>
<path style="fill:#c1b3b9; stroke:none;" d="M269.333 470.667L269.667 471.333L269.333 470.667z"/>
<path style="fill:#fe86b9; stroke:none;" d="M233 472L234 473L233 472z"/>
<path style="fill:#fb6bac; stroke:none;" d="M247 472L247 475L248 475L247 472z"/>
<path style="fill:#c1b3b9; stroke:none;" d="M268 472L269 473L268 472z"/>
<path style="fill:#fb6bac; stroke:none;" d="M233 473L234 474L233 473z"/>
<path style="fill:#c1b3b9; stroke:none;" d="M232 474L233 475L232 474M267 474L268 475L267 474z"/>
<path style="fill:#fe86b9; stroke:none;" d="M232 475L233 476L232 475z"/>
<path style="fill:#fb6bac; stroke:none;" d="M246 475L246 478L247 478L246 475z"/>
<path style="fill:#c1b3b9; stroke:none;" d="M266 475L267 476L266 475z"/>
<path style="fill:#fb6bac; stroke:none;" d="M232 476L233 477L232 476z"/>
<path style="fill:#c1b3b9; stroke:none;" d="M231 477L232 478L231 477M265 477L266 478L265 477z"/>
<path style="fill:#fe86b9; stroke:none;" d="M231 478L232 479L231 478z"/>
<path style="fill:#fb6bac; stroke:none;" d="M245.333 478.667L245.667 479.333L245.333 478.667M231 479L232 480L231 479z"/>
<path style="fill:#c1b3b9; stroke:none;" d="M264 479L265 480L264 479M205 480L197 507L198 507L207 480L205 480z"/>
<path style="fill:#fe86b9; stroke:none;" d="M230 480L231 481L230 480z"/>
<path style="fill:#fb6bac; stroke:none;" d="M244 480L244 483L245 483L244 480M230.333 481.667L230.667 482.333L230.333 481.667z"/>
<path style="fill:#c1b3b9; stroke:none;" d="M263 481L264 482L263 481M229 482L230 483L229 482M262 482L263 483L262 482z"/>
<path style="fill:#fe86b9; stroke:none;" d="M229 483L230 484L229 483z"/>
<path style="fill:#fb6bac; stroke:none;" d="M243.333 483.667L243.667 484.333L243.333 483.667M229 484L230 485L229 484z"/>
<path style="fill:#c1b3b9; stroke:none;" d="M261 484L262 485L261 484M228 485L229 486L228 485z"/>
<path style="fill:#fe86b9; stroke:none;" d="M228 486L229 487L228 486z"/>
<path style="fill:#fb6bac; stroke:none;" d="M242.333 486.667L242.667 487.333L242.333 486.667z"/>
<path style="fill:#c1b3b9; stroke:none;" d="M260 486L261 487L260 486z"/>
<path style="fill:#fb6bac; stroke:none;" d="M228 487L229 488L228 487z"/>
<path style="fill:#c1b3b9; stroke:none;" d="M259 487L260 488L259 487M227 488L228 489L227 488z"/>
<path style="fill:#fb6bac; stroke:none;" d="M241 488L240 493L241 493L241 488z"/>
<path style="fill:#fe86b9; stroke:none;" d="M227 489L228 490L227 489z"/>
<path style="fill:#c1b3b9; stroke:none;" d="M258 489L259 490L258 489z"/>
<path style="fill:#fb6bac; stroke:none;" d="M227 490L228 491L227 490z"/>
<path style="fill:#fe86b9; stroke:none;" d="M226 491L227 492L226 491z"/>
<path style="fill:#c1b3b9; stroke:none;" d="M257 491L258 492L257 491z"/>
<path style="fill:#fb6bac; stroke:none;" d="M226 492L227 493L226 492z"/>
<path style="fill:#c1b3b9; stroke:none;" d="M256 492L257 493L256 492M225 493L226 494L225 493z"/>
<path style="fill:#fe86b9; stroke:none;" d="M225 494L226 495L225 494z"/>
<path style="fill:#fb6bac; stroke:none;" d="M239.333 494.667L239.667 495.333L239.333 494.667z"/>
<path style="fill:#c1b3b9; stroke:none;" d="M255 494L256 495L255 494z"/>
<path style="fill:#fb6bac; stroke:none;" d="M225 495L226 496L225 495z"/>
<path style="fill:#fe86b9; stroke:none;" d="M224 496L225 497L224 496z"/>
<path style="fill:#fb6bac; stroke:none;" d="M238 496L238 502L239 502L238 496z"/>
<path style="fill:#c1b3b9; stroke:none;" d="M254 496L255 497L254 496z"/>
<path style="fill:#fb6bac; stroke:none;" d="M224.333 497.667L224.667 498.333L224.333 497.667z"/>
<path style="fill:#c1b3b9; stroke:none;" d="M253 497L254 498L253 497z"/>
<path style="fill:#fe86b9; stroke:none;" d="M223 499L224 500L223 499z"/>
<path style="fill:#c1b3b9; stroke:none;" d="M252 499L253 500L252 499z"/>
<path style="fill:#fb6bac; stroke:none;" d="M223.333 500.667L223.667 501.333L223.333 500.667z"/>
<path style="fill:#c1b3b9; stroke:none;" d="M251.333 500.667L251.667 501.333L251.333 500.667z"/>
<path style="fill:#fe86b9; stroke:none;" d="M222 502L223 503L222 502z"/>
<path style="fill:#fb6bac; stroke:none;" d="M236.333 502.667L236.667 503.333L236.333 502.667z"/>
<path style="fill:#c1b3b9; stroke:none;" d="M250 502L251 503L250 502z"/>
<path style="fill:#fb6bac; stroke:none;" d="M222 503L223 504L222 503z"/>
<path style="fill:#c1b3b9; stroke:none;" d="M221 504L222 505L221 504z"/>
<path style="fill:#fb6bac; stroke:none;" d="M235.333 504.667L235.667 505.333L235.333 504.667z"/>
<path style="fill:#c1b3b9; stroke:none;" d="M249 504L250 505L249 504z"/>
<path style="fill:#fe86b9; stroke:none;" d="M221 505L222 506L221 505z"/>
<path style="fill:#fb6bac; stroke:none;" d="M221 506L222 507L221 506M234 506L235 507L234 506z"/>
<path style="fill:#fe86b9; stroke:none;" d="M220 507L221 508L220 507z"/>
<path style="fill:#c1b3b9; stroke:none;" d="M196 508L196 514L197 514L198 508L196 508z"/>
<path style="fill:#fb6bac; stroke:none;" d="M220.333 508.667L220.667 509.333L220.333 508.667M233 508L234 509L233 508z"/>
<path style="fill:#c1b3b9; stroke:none;" d="M219 509L220 510L219 509z"/>
<path style="fill:#fb6bac; stroke:none;" d="M232 509L233 510L232 509z"/>
<path style="fill:#c1b3b9; stroke:none;" d="M246 509L247 510L246 509z"/>
<path style="fill:#fe86b9; stroke:none;" d="M219 510L220 511L219 510z"/>
<path style="fill:#c1b3b9; stroke:none;" d="M245.333 510.667L245.667 511.333L245.333 510.667z"/>
<path style="fill:#fb6bac; stroke:none;" d="M219 511L220 512L219 511M231 511L232 512L231 511z"/>
<path style="fill:#c1b3b9; stroke:none;" d="M232 511L231 513L233 513L232 511M218 512L219 513L218 512M244 512L245 513L244 512z"/>
<path style="fill:#fe86b9; stroke:none;" d="M218 513L219 514L218 513M230 513L231 514L230 513z"/>
<path style="fill:#fb6bac; stroke:none;" d="M218 514L219 515L218 514M229 514L230 515L229 514z"/>
<path style="fill:#c1b3b9; stroke:none;" d="M243 514L244 515L243 514M195 515L195 521L197 521L197 515L195 515M217 515L218 516L217 515z"/>
<path style="fill:#fe86b9; stroke:none;" d="M229 515L230 516L229 515M217 516L218 517L217 516z"/>
<path style="fill:#fb6bac; stroke:none;" d="M228 516L229 517L228 516z"/>
<path style="fill:#c1b3b9; stroke:none;" d="M231.333 516.667L231.667 517.333L231.333 516.667M242 516L243 517L242 516z"/>
<path style="fill:#fb6bac; stroke:none;" d="M217 517L217 520L218 520L217 517z"/>
<path style="fill:#c1b3b9; stroke:none;" d="M228 517L229 518L228 517M241 517L242 518L241 517z"/>
<path style="fill:#fe86b9; stroke:none;" d="M227 518L228 519L227 518z"/>
<path style="fill:#fb6bac; stroke:none;" d="M226 519L227 520L226 519z"/>
<path style="fill:#c1b3b9; stroke:none;" d="M227 519L228 520L227 519M240 519L241 520L240 519z"/>
<path style="fill:#fe86b9; stroke:none;" d="M217 520L218 521L217 520M226 520L227 521L226 520z"/>
<path style="fill:#c1b3b9; stroke:none;" d="M231 520L232 521L231 520z"/>
<path style="fill:#fb6bac; stroke:none;" d="M218 521C220.926 523.943 223.074 523.943 226 521L218 521z"/>
<path style="fill:#c1b3b9; stroke:none;" d="M239 521L240 522L239 521M196 522C196.143 528.896 197.524 535.429 203 540L196 522z"/>
<path style="fill:#fe86b9; stroke:none;" d="M218 522L219 523L218 522z"/>
<path style="fill:#c1b3b9; stroke:none;" d="M225 522L226 523L225 522M238 522L239 523L238 522z"/>
<path style="fill:#fe86b9; stroke:none;" d="M219 523L220 524L219 523z"/>
<path style="fill:#c1b3b9; stroke:none;" d="M224 523L225 524L224 523M234 523L234 524L238 524L234 523M204 540L204 542L206 542L204 540M208 542C213.386 548.66 232.192 546.446 240 545.911C243.407 545.677 247.718 545.625 250 543C236.412 544.717 221.387 545.298 208 542z"/>
</svg>
